<svg xmlns="http://www.w3.org/2000/svg" viewBox="0 0 600 275" font-family="Arial,Helvetica,sans-serif" font-size="15"><rect width="600" height="275" fill="#fff"/><defs><marker id="mb" markerWidth="9" markerHeight="9" refX="8" refY="4.5" orient="auto-start-reverse" markerUnits="userSpaceOnUse"><path d="M0 0L9 4.5L0 9z" fill="#2563eb"/></marker><marker id="mr" markerWidth="9" markerHeight="9" refX="8" refY="4.5" orient="auto-start-reverse" markerUnits="userSpaceOnUse"><path d="M0 0L9 4.5L0 9z" fill="#dc2626"/></marker><marker id="mg" markerWidth="9" markerHeight="9" refX="8" refY="4.5" orient="auto-start-reverse" markerUnits="userSpaceOnUse"><path d="M0 0L9 4.5L0 9z" fill="#15803d"/></marker><marker id="mk" markerWidth="9" markerHeight="9" refX="8" refY="4.5" orient="auto-start-reverse" markerUnits="userSpaceOnUse"><path d="M0 0L9 4.5L0 9z" fill="#555555"/></marker></defs><line x1="60" y1="150" x2="560" y2="150" stroke="#555555" stroke-width="3"/><line x1="60" y1="144" x2="60" y2="156" stroke="#555555" stroke-width="2"/><text x="60" y="174" fill="#555" text-anchor="middle" font-size="12">0,00001</text><line x1="140" y1="144" x2="140" y2="156" stroke="#555555" stroke-width="2"/><text x="140" y="174" fill="#555" text-anchor="middle" font-size="12">0,0001</text><line x1="220" y1="144" x2="220" y2="156" stroke="#555555" stroke-width="2"/><text x="220" y="174" fill="#555" text-anchor="middle" font-size="12">0,001</text><line x1="300" y1="144" x2="300" y2="156" stroke="#555555" stroke-width="2"/><text x="300" y="174" fill="#555" text-anchor="middle" font-size="12">0,01</text><line x1="380" y1="144" x2="380" y2="156" stroke="#555555" stroke-width="2"/><text x="380" y="174" fill="#555" text-anchor="middle" font-size="12">0,1</text><line x1="460" y1="144" x2="460" y2="156" stroke="#555555" stroke-width="2"/><text x="460" y="174" fill="#555" text-anchor="middle" font-size="12">1</text><line x1="540" y1="144" x2="540" y2="156" stroke="#555555" stroke-width="2"/><text x="540" y="174" fill="#555" text-anchor="middle" font-size="12">10</text><circle cx="115.9" cy="150" r="7" fill="#15803d" stroke="#333" stroke-width="1"/><line x1="115.9" y1="142" x2="115.9" y2="103" stroke="#15803d" stroke-width="1.5"/><text x="115.9" y="95" fill="#15803d" text-anchor="middle" font-size="14" font-weight="bold">Tierra: 0,00005 T</text><circle cx="275.9" cy="150" r="7" fill="#15803d" stroke="#333" stroke-width="1"/><line x1="275.9" y1="142" x2="275.9" y2="103" stroke="#15803d" stroke-width="1.5"/><text x="275.9" y="95" fill="#15803d" text-anchor="middle" font-size="14" font-weight="bold">Imán de nevera: 0,005 T</text><circle cx="498.2" cy="150" r="7" fill="#dc2626" stroke="#333" stroke-width="1"/><line x1="498.2" y1="142" x2="498.2" y2="103" stroke="#dc2626" stroke-width="1.5"/><text x="506.2" y="95" fill="#dc2626" text-anchor="end" font-size="14" font-weight="bold">RM clínica: 3 T</text><circle cx="474.1" cy="150" r="7" fill="#dc2626" stroke="#333" stroke-width="1"/><line x1="474.1" y1="158" x2="474.1" y2="198" stroke="#dc2626" stroke-width="1.5"/><text x="482.1" y="212" fill="#dc2626" text-anchor="end" font-size="14" font-weight="bold">RM clínica: 1,5 T</text><text x="310" y="252" fill="#222" text-anchor="middle" font-size="13">Escala logarítmica: cada marca vale 10 veces más que la anterior (unidad: tesla, T)</text></svg>